<svg width="23" height="22" viewBox="0 0 23 22" fill="none" xmlns="http://www.w3.org/2000/svg">
<path d="M16.962 5.5H16.972M6.46204 1H16.462C19.2235 1 21.462 3.23858 21.462 6V16C21.462 18.7614 19.2235 21 16.462 21H6.46204C3.70061 21 1.46204 18.7614 1.46204 16V6C1.46204 3.23858 3.70061 1 6.46204 1ZM15.462 10.37C15.5854 11.2022 15.4433 12.0522 15.0558 12.799C14.6683 13.5458 14.0552 14.1514 13.3037 14.5297C12.5521 14.9079 11.7005 15.0396 10.8698 14.9059C10.0392 14.7723 9.2718 14.3801 8.67688 13.7852C8.08195 13.1902 7.68977 12.4229 7.5561 11.5922C7.42244 10.7616 7.5541 9.90989 7.93236 9.15837C8.31062 8.40685 8.91622 7.79374 9.66302 7.40624C10.4098 7.01874 11.2598 6.87659 12.092 7C12.941 7.12588 13.7269 7.52146 14.3337 8.12831C14.9406 8.73515 15.3362 9.52108 15.462 10.37Z" stroke="#223B60" stroke-width="2" stroke-linecap="round" stroke-linejoin="round"/>
</svg>
