<?xml version="1.0" standalone="no"?>
<!DOCTYPE svg PUBLIC "-//W3C//DTD SVG 20010904//EN"
 "http://www.w3.org/TR/2001/REC-SVG-20010904/DTD/svg10.dtd">
<svg version="1.0" xmlns="http://www.w3.org/2000/svg"
 width="1000.000000pt" height="1000.000000pt" viewBox="0 0 1000.000000 1000.000000"
 preserveAspectRatio="xMidYMid meet">

<g transform="translate(0.000000,1000.000000) scale(0.100000,-0.100000)"
fill="#000000" stroke="none">
<path d="M6007 8910 c-93 -119 -244 -341 -316 -464 -122 -208 -293 -579 -274
-596 4 -4 51 -25 103 -45 227 -90 494 -247 720 -426 136 -107 385 -357 481
-484 202 -265 344 -529 445 -830 45 -131 51 -114 12 35 -93 355 -297 833 -697
1625 -259 514 -304 622 -350 835 -26 122 -44 297 -39 383 1 37 1 67 -2 67 -3
0 -40 -45 -83 -100z"/>
<path d="M4090 7883 c-738 -55 -1568 -344 -2260 -785 -133 -85 -320 -216 -320
-225 0 -3 48 -2 107 2 60 4 245 10 412 14 l304 6 15 51 c21 77 76 143 152 182
61 32 70 34 145 30 98 -6 145 -27 209 -98 41 -46 76 -122 76 -166 0 -8 34 -14
108 -18 173 -11 469 -35 575 -47 54 -6 100 -9 103 -7 6 7 -33 153 -50 187
l-16 29 67 8 c97 10 448 -2 591 -20 497 -65 984 -213 1478 -451 184 -88 327
-169 439 -247 109 -77 260 -205 328 -279 l62 -67 180 -26 c99 -14 215 -32 258
-40 93 -16 92 -20 43 121 -350 1003 -1257 1708 -2366 1838 -113 14 -503 18
-640 8z m700 -171 c536 -74 992 -254 1375 -542 143 -108 452 -411 378 -371
-12 6 -25 16 -28 21 -11 17 -197 155 -291 216 -203 131 -453 256 -684 342
-439 164 -887 232 -1526 233 -400 0 -594 -22 -993 -111 -123 -28 -229 -49
-234 -47 -24 8 288 115 472 163 209 54 415 88 706 118 22 2 184 2 360 1 253
-2 350 -7 465 -23z"/>
<path d="M2555 7031 c-48 -22 -69 -44 -90 -94 -31 -75 -13 -150 48 -204 69
-61 153 -65 227 -12 90 65 102 180 28 265 -56 63 -136 80 -213 45z m134 -133
c33 -59 -28 -120 -87 -87 -34 19 -42 71 -16 100 27 30 84 22 103 -13z"/>
<path d="M3752 6944 c228 -234 302 -405 303 -699 0 -119 -3 -151 -23 -215 -66
-212 -218 -375 -456 -490 -148 -71 -221 -85 -451 -85 -216 1 -376 22 -605 79
-74 18 -136 32 -138 31 -2 -2 54 -26 125 -53 150 -58 328 -105 466 -122 96
-12 354 -9 422 6 28 5 27 3 -15 -25 -140 -96 -326 -100 -665 -15 -156 40 -494
147 -706 223 -106 39 -194 69 -196 67 -5 -5 388 -160 522 -206 144 -49 350
-109 523 -152 113 -28 143 -32 277 -32 130 -1 160 2 225 22 104 33 195 85 262
152 31 31 89 76 130 100 96 57 242 202 295 295 119 207 145 452 69 664 -9 24
-14 47 -11 50 9 8 218 -18 360 -45 375 -72 753 -203 1083 -374 l135 -70 101 0
101 0 -55 36 c-87 55 -462 238 -605 295 -349 138 -778 265 -1120 330 l-120 23
-49 59 c-48 57 -167 166 -231 210 -16 11 5 -15 47 -59z"/>
<path d="M1646 6698 c245 -250 584 -609 584 -618 0 -3 -133 -74 -295 -158
-162 -85 -295 -155 -295 -158 0 -2 24 5 53 16 28 10 245 84 481 164 236 80
431 147 433 149 12 12 -318 271 -504 395 -158 106 -547 332 -572 332 -3 0 48
-55 115 -122z"/>
<path d="M2921 6797 c-2 -36 -51 -116 -92 -151 -153 -130 -381 -82 -465 98
-15 31 -24 43 -24 30 0 -34 59 -141 93 -170 160 -135 406 -78 476 111 12 32
20 68 18 79 -3 16 -5 17 -6 3z"/>
<path d="M5070 5939 c-258 -15 -739 -64 -750 -76 -3 -3 2 -8 10 -11 37 -13
139 -126 171 -190 33 -64 34 -72 34 -179 l0 -112 105 -35 c194 -63 331 -89
470 -90 l125 -1 125 57 c295 134 624 220 1030 270 141 17 753 17 920 0 283
-29 551 -75 840 -142 139 -33 426 -111 495 -135 57 -20 -34 30 -156 86 -677
311 -1500 500 -2434 559 -182 11 -783 11 -985 -1z"/>
<path d="M6940 5488 c0 -2 18 -48 40 -103 106 -258 168 -577 171 -870 l1 -120
24 120 c37 186 55 344 61 545 4 155 -7 404 -19 415 -5 4 -278 18 -278 13z"/>
<path d="M7304 5434 c20 -142 28 -270 23 -360 l-6 -101 78 -16 c107 -21 255
-78 357 -137 256 -147 437 -371 540 -670 37 -106 41 -105 19 8 -81 400 -349
813 -729 1120 -76 62 -228 172 -266 192 -23 12 -23 12 -16 -36z"/>
<path d="M6498 5463 c-27 -4 -26 -6 63 -111 223 -262 367 -542 435 -847 20
-85 27 -152 32 -295 6 -196 19 -186 21 15 2 258 -58 504 -188 765 -95 192
-292 482 -324 479 -6 -1 -24 -4 -39 -6z"/>
<path d="M3404 4988 c-99 -106 -403 -511 -566 -753 -194 -290 -390 -629 -504
-873 -62 -131 -61 -131 62 28 199 257 498 576 719 768 315 273 665 491 940
586 14 5 -31 28 -172 86 -105 43 -247 104 -314 134 -68 31 -126 56 -129 56 -3
0 -20 -15 -36 -32z"/>
<path d="M5122 4278 c-54 -182 -78 -373 -68 -543 4 -66 10 -136 15 -155 l7
-35 33 65 c48 93 97 164 160 233 62 67 175 150 226 167 l34 11 -38 58 c-21 32
-48 84 -62 114 l-24 56 -125 51 c-69 27 -128 50 -131 50 -4 0 -16 -33 -27 -72z"/>
<path d="M5904 4033 c17 -58 37 -187 32 -207 -3 -14 -26 -37 -53 -54 -27 -17
-64 -47 -83 -67 -34 -35 -34 -37 -40 -143 -3 -59 -11 -116 -17 -127 -6 -11
-40 -38 -76 -59 -75 -46 -87 -63 -116 -166 -11 -41 -29 -82 -38 -92 -10 -9
-49 -30 -88 -45 l-69 -28 -18 -59 c-10 -33 -17 -64 -15 -69 6 -20 160 98 250
193 158 164 320 434 431 716 59 150 60 144 -22 187 -80 42 -85 44 -78 20z"/>
<path d="M6167 3763 c114 -650 324 -1329 618 -1998 61 -139 286 -597 292 -592
1 2 -18 50 -43 108 -241 544 -374 1148 -374 1688 0 91 5 205 10 254 8 75 6 95
-10 142 -49 141 -153 294 -264 386 -69 56 -189 131 -232 143 l-21 7 24 -138z"/>
<path d="M6023 3673 c-92 -211 -217 -400 -374 -566 -259 -273 -488 -357 -700
-255 -97 47 -143 88 -257 232 -227 287 -471 478 -749 586 -127 50 -146 51 -63
3 92 -55 249 -209 321 -317 76 -113 115 -190 168 -336 92 -252 217 -459 287
-476 l25 -6 -35 -33 c-45 -41 -90 -138 -110 -237 -9 -42 -29 -206 -45 -365
-32 -313 -47 -375 -116 -498 -59 -106 -174 -236 -275 -310 -57 -42 -20 -28 73
28 134 80 197 130 304 241 155 158 261 333 353 581 100 269 207 424 364 529
31 21 123 67 204 103 225 99 415 185 547 248 66 32 162 77 213 101 50 24 92
48 92 54 0 6 -18 68 -39 138 -39 127 -86 329 -116 497 -32 175 -24 169 -72 58z"/>
<path d="M6185 2846 c-44 -18 -239 -98 -434 -177 -384 -156 -371 -146 -238
-167 64 -10 81 -3 172 75 l40 34 120 -6 120 -7 61 61 c70 70 80 72 209 45 42
-9 78 -14 80 -12 4 4 -41 177 -47 184 -2 1 -39 -12 -83 -30z"/>
</g>
</svg>
