<svg width="27" height="22" viewBox="0 0 27 22" fill="none" xmlns="http://www.w3.org/2000/svg">
<path d="M25.9832 1.01121C24.9158 1.76409 23.7341 2.33993 22.4834 2.71654C21.8121 1.9447 20.92 1.39763 19.9276 1.14934C18.9353 0.901042 17.8907 0.963498 16.935 1.32826C15.9793 1.69302 15.1587 2.34249 14.5842 3.18882C14.0097 4.03515 13.7089 5.03751 13.7226 6.06034V7.17494C11.7639 7.22573 9.82295 6.79131 8.07273 5.91037C6.32251 5.02942 4.81733 3.72931 3.69123 2.12581C3.69123 2.12581 -0.767161 12.1572 9.26423 16.6156C6.96874 18.1738 4.23422 18.9551 1.46204 18.8448C11.4934 24.4178 23.754 18.8448 23.754 6.0269C23.753 5.71643 23.7231 5.40673 23.6648 5.10178C24.8024 3.97993 25.6052 2.56352 25.9832 1.01121Z" stroke="#223B60" stroke-width="2" stroke-linecap="round" stroke-linejoin="round"/>
</svg>
