<svg width="142" height="65" viewBox="0 0 142 65" fill="none" xmlns="http://www.w3.org/2000/svg">
<path fill-rule="evenodd" clip-rule="evenodd" d="M21.944 1.72001C22.688 2.67201 23.896 4.44801 24.472 5.43201C25.448 7.09601 26.816 10.064 26.664 10.2C26.632 10.232 26.256 10.4 25.84 10.56C24.024 11.28 21.888 12.536 20.08 13.968C18.992 14.824 17 16.824 16.232 17.84C14.616 19.96 13.48 22.072 12.672 24.48C12.312 25.528 12.264 25.392 12.576 24.2C13.32 21.36 14.952 17.536 18.152 11.2C20.224 7.08801 20.584 6.22401 20.952 4.52001C21.16 3.54401 21.304 2.14401 21.264 1.45601C21.256 1.16001 21.256 0.920013 21.28 0.920013C21.304 0.920013 21.6 1.28001 21.944 1.72001ZM37.28 9.93601C43.184 10.376 49.824 12.688 55.36 16.216C56.424 16.896 57.92 17.944 57.92 18.016C57.92 18.04 57.536 18.032 57.064 18C56.584 17.968 55.104 17.92 53.768 17.888L51.336 17.84L51.216 17.432C51.048 16.816 50.608 16.288 50 15.976C49.512 15.72 49.44 15.704 48.84 15.736C48.056 15.784 47.68 15.952 47.168 16.52C46.84 16.888 46.56 17.496 46.56 17.848C46.56 17.912 46.288 17.96 45.696 17.992C44.312 18.08 41.944 18.272 41.096 18.368C40.664 18.416 40.296 18.44 40.272 18.424C40.224 18.368 40.536 17.2 40.672 16.928L40.8 16.696L40.264 16.632C39.488 16.552 36.68 16.648 35.536 16.792C31.56 17.312 27.664 18.496 23.712 20.4C22.24 21.104 21.096 21.752 20.2 22.376C19.328 22.992 18.12 24.016 17.576 24.608L17.08 25.144L15.64 25.352C14.848 25.464 13.92 25.608 13.576 25.672L13.5099 25.6834C13.2245 25.733 13.0627 25.761 12.9997 25.6949C12.9173 25.6086 13.0032 25.3615 13.2015 24.7917L13.232 24.704C16.032 16.68 23.288 11.04 32.16 10C33.064 9.88801 36.184 9.85601 37.28 9.93601ZM31.68 11.304C27.392 11.896 23.744 13.336 20.68 15.64C19.536 16.504 17.064 18.928 17.656 18.608C17.752 18.56 17.856 18.48 17.88 18.44C17.968 18.304 19.456 17.2 20.208 16.712C21.832 15.664 23.832 14.664 25.68 13.976C29.192 12.664 32.776 12.12 37.888 12.112C41.088 12.112 42.64 12.288 45.832 13C46.816 13.224 47.664 13.392 47.704 13.376C47.896 13.312 45.4 12.456 43.928 12.072C42.256 11.64 40.608 11.368 38.28 11.128C38.104 11.112 36.808 11.112 35.4 11.12C33.376 11.136 32.6 11.176 31.68 11.304ZM50.28 17.504C50.112 17.104 49.944 16.928 49.56 16.752C48.944 16.472 48.304 16.608 47.856 17.112C47.264 17.792 47.36 18.712 48.08 19.232C48.672 19.656 49.344 19.624 49.896 19.136C50.384 18.704 50.528 18.104 50.28 17.504ZM49.184 18.512C48.712 18.776 48.224 18.288 48.488 17.816C48.64 17.536 49.096 17.472 49.312 17.712C49.52 17.944 49.456 18.36 49.184 18.512ZM39.984 17.448C38.16 19.32 37.568 20.688 37.56 23.04C37.56 23.992 37.584 24.248 37.744 24.76C38.272 26.456 39.488 27.76 41.392 28.68C42.576 29.248 43.16 29.36 45 29.36C46.728 29.352 48.008 29.184 49.84 28.728C50.432 28.584 50.928 28.472 50.944 28.48C50.96 28.496 50.512 28.688 49.944 28.904C48.744 29.368 47.32 29.744 46.216 29.88C45.448 29.976 43.384 29.952 42.84 29.832C42.616 29.792 42.624 29.808 42.96 30.032C44.08 30.8 45.568 30.832 48.28 30.152C49.528 29.832 52.232 28.976 53.928 28.368C54.776 28.056 55.48 27.816 55.496 27.832C55.536 27.872 52.392 29.112 51.32 29.48C50.168 29.872 48.52 30.352 47.136 30.696C46.232 30.92 45.992 30.952 44.92 30.952C43.88 30.96 43.64 30.936 43.12 30.776C42.288 30.512 41.56 30.096 41.024 29.56C40.776 29.312 40.312 28.952 39.984 28.76C39.216 28.304 38.048 27.144 37.624 26.4C36.672 24.744 36.464 22.784 37.072 21.088C37.144 20.896 37.184 20.712 37.16 20.688C37.088 20.624 35.416 20.832 34.28 21.048C31.28 21.624 28.256 22.672 25.616 24.04L24.536 24.6H23.728H22.92L23.36 24.312C24.056 23.872 27.056 22.408 28.2 21.952C30.992 20.848 34.424 19.832 37.16 19.312L38.12 19.128L38.512 18.656C38.896 18.2 39.848 17.328 40.36 16.976C40.488 16.888 40.32 17.096 39.984 17.448ZM52.16 24.36C52.16 24.288 54.872 21.416 56.832 19.416C57.368 18.88 57.776 18.44 57.752 18.44C57.552 18.44 54.44 20.248 53.176 21.096C51.688 22.088 49.048 24.16 49.144 24.256C49.16 24.272 50.72 24.808 52.608 25.448C54.496 26.088 56.232 26.68 56.456 26.76C56.688 26.848 56.88 26.904 56.88 26.888C56.88 26.864 55.816 26.304 54.52 25.624C53.224 24.952 52.16 24.384 52.16 24.36ZM46.632 18.624C46.648 18.912 47.04 19.552 47.368 19.832C48.592 20.872 50.416 20.488 51.088 19.048C51.208 18.8 51.28 18.704 51.28 18.808C51.28 19.08 50.808 19.936 50.536 20.168C49.256 21.248 47.288 20.792 46.728 19.28C46.632 19.024 46.568 18.736 46.584 18.648C46.608 18.52 46.624 18.512 46.632 18.624ZM35.44 26.096C35.352 26 31.504 25.608 29.44 25.488C27.824 25.392 23.016 25.392 21.56 25.48C14.088 25.952 7.50399 27.464 2.08799 29.952C1.11199 30.4 0.383989 30.8 0.839989 30.64C1.39199 30.448 3.68799 29.824 4.79999 29.56C7.11199 29.024 9.25599 28.656 11.52 28.424C12.856 28.288 17.752 28.288 18.88 28.424C22.128 28.824 24.76 29.512 27.12 30.584L28.12 31.04L29.12 31.032C30.232 31.024 31.328 30.816 32.88 30.312L33.72 30.032V29.136C33.72 28.28 33.728 28.216 33.992 27.704C34.248 27.192 35.064 26.288 35.36 26.184C35.424 26.16 35.464 26.12 35.44 26.096ZM14.48 29.096C14.48 29.112 14.336 29.48 14.16 29.92C13.312 31.984 12.816 34.536 12.792 36.88L12.784 37.84L12.592 36.88C12.296 35.392 12.152 34.128 12.104 32.52C12.072 31.28 12.16 29.288 12.256 29.2C12.296 29.168 14.48 29.056 14.48 29.096ZM11.384 32.408C11.344 31.688 11.408 30.664 11.568 29.528C11.6009 29.3029 11.6144 29.2097 11.583 29.1905C11.5608 29.177 11.5161 29.2003 11.44 29.24L11.44 29.24C11.136 29.4 9.92001 30.28 9.312 30.776C6.27199 33.232 4.12798 36.536 3.47998 39.736C3.30398 40.64 3.33598 40.648 3.63198 39.8C4.45598 37.408 5.90399 35.616 7.952 34.44C8.768 33.968 9.95201 33.512 10.808 33.344L11.432 33.216L11.384 32.408ZM18.016 29.296C18.232 29.328 18.224 29.344 17.512 30.184C15.7279 32.28 14.5759 34.52 14.0319 36.96C13.8719 37.64 13.8159 38.176 13.7759 39.32C13.7279 40.888 13.6239 40.808 13.6079 39.2C13.5919 37.136 14.0719 35.168 15.1119 33.08C15.8719 31.544 17.448 29.224 17.704 29.248C17.752 29.256 17.896 29.28 18.016 29.296ZM47.296 39.12C45.992 37.184 43.56 33.944 42.768 33.096C42.64 32.96 42.504 32.84 42.48 32.84C42.456 32.84 41.992 33.04 41.448 33.288C40.912 33.528 39.776 34.016 38.936 34.36C37.808 34.824 37.448 35.008 37.56 35.048C39.76 35.808 42.56 37.552 45.08 39.736C46.848 41.272 49.24 43.824 50.832 45.88C51.816 47.152 51.824 47.152 51.328 46.104C50.416 44.152 48.848 41.44 47.296 39.12ZM29.024 38.776C29.456 40.232 29.648 41.76 29.568 43.12C29.536 43.648 29.488 44.208 29.448 44.36L29.392 44.64L29.128 44.12C28.744 43.376 28.352 42.808 27.848 42.256C27.352 41.72 26.448 41.056 26.04 40.92L25.768 40.832L26.072 40.368C26.24 40.112 26.456 39.696 26.568 39.456L26.76 39.008L27.76 38.6C28.312 38.384 28.784 38.2 28.808 38.2C28.84 38.2 28.936 38.464 29.024 38.776ZM22.512 42.392C22.472 42.232 22.632 41.2001 22.768 40.7361C22.824 40.5441 22.784 40.5601 22.144 40.8961L22.0878 40.9254C21.8526 41.0483 21.713 41.1213 21.6579 41.2351C21.5776 41.4012 21.6774 41.6546 21.923 42.2777L21.968 42.392C22.856 44.648 24.152 46.808 25.416 48.12C26.136 48.88 27.368 49.824 27.416 49.664C27.432 49.624 27.376 49.376 27.296 49.112L27.152 48.64L26.6 48.416C26.288 48.296 25.976 48.128 25.896 48.056C25.824 47.976 25.68 47.648 25.592 47.32C25.36 46.496 25.264 46.36 24.664 45.992C24.376 45.824 24.104 45.608 24.056 45.52C24.008 45.432 23.944 44.976 23.92 44.504L23.9195 44.4951C23.872 43.6559 23.871 43.6391 23.6 43.36C23.448 43.2 23.152 42.96 22.936 42.824C22.72 42.688 22.536 42.504 22.512 42.392ZM20.6641 42.896C19.7521 48.096 18.0721 53.528 15.7201 58.88C15.2321 59.992 13.4321 63.656 13.3841 63.616C13.3761 63.6 13.5281 63.216 13.7281 62.752C15.6561 58.4 16.7201 53.568 16.7201 49.248C16.7201 48.52 16.6801 47.608 16.6401 47.216C16.5761 46.616 16.5921 46.456 16.7201 46.08C17.1121 44.952 17.9441 43.728 18.8321 42.992C19.3841 42.544 20.3441 41.944 20.6881 41.848L20.8561 41.792L20.6641 42.896ZM24.808 48.144C23.552 46.816 22.552 45.304 21.816 43.616C21.7813 43.5359 21.7503 43.4626 21.7224 43.3966L21.7222 43.3962C21.6082 43.1266 21.5456 42.9787 21.496 42.983C21.4357 42.9881 21.3946 43.2181 21.3035 43.7277L21.3033 43.7286C21.2845 43.8337 21.2636 43.9507 21.24 44.08C21 45.424 20.624 47.04 20.312 48.056C20.144 48.616 20 49.112 20 49.16C20 49.208 20.336 49.4 20.736 49.592L20.906 49.672C21.3336 49.873 21.9784 50.1762 22.44 50.4C23.496 50.904 25.016 51.592 26.816 52.384C27.464 52.672 28.2 53.04 28.448 53.208C29.704 54.048 30.56 55.288 31.36 57.44C32.096 59.424 32.944 60.824 34.184 62.088C35.04 62.976 35.544 63.376 36.616 64.016C37.36 64.464 37.656 64.576 37.2 64.24C36.392 63.648 35.472 62.608 35 61.76C34.448 60.776 34.328 60.28 34.072 57.776C33.944 56.504 33.784 55.192 33.712 54.856C33.552 54.064 33.192 53.288 32.832 52.96L32.552 52.696L32.752 52.648C33.312 52.512 34.312 50.856 35.048 48.84C35.472 47.672 35.784 47.056 36.392 46.152C36.968 45.288 38.224 44.056 38.96 43.616C39.624 43.232 39.472 43.24 38.456 43.64C36.232 44.504 34.28 46.032 32.464 48.328C31.552 49.48 31.184 49.808 30.408 50.184C28.712 51 26.88 50.328 24.808 48.144ZM20.52 50.232L20.7254 50.3162C21.2929 50.5486 22.6424 51.1013 23.992 51.648C24.1744 51.7221 24.3455 51.7915 24.506 51.8566C26.0394 52.4783 26.5928 52.7027 26.5709 52.8176C26.5586 52.8824 26.3628 52.9124 26.0564 52.9592C26.0058 52.9669 25.9522 52.9751 25.896 52.984C25.384 53.064 25.248 53.008 24.52 52.384L24.2 52.112L23.24 52.16L22.28 52.216L21.792 51.728C21.232 51.168 21.152 51.152 20.12 51.368C19.784 51.44 19.496 51.48 19.48 51.464C19.448 51.432 19.808 50.048 19.856 49.992C19.872 49.984 20.168 50.088 20.52 50.232ZM76.9317 22H78.9824V12.0469H76.9385V18.6094L72.9395 12.0469H70.8887V22H72.9395V15.4512L76.9317 22ZM80.7598 16.2715C80.4772 16.8457 80.336 17.4997 80.336 18.2334V18.3223C80.336 19.4981 80.6527 20.4277 81.2861 21.1113C81.9242 21.7949 82.7764 22.1367 83.8428 22.1367C84.9092 22.1367 85.7591 21.7949 86.3926 21.1113C87.0261 20.4232 87.3428 19.5117 87.3428 18.377L87.3291 17.8711C87.2562 16.8229 86.903 15.9935 86.2695 15.3828C85.6406 14.7721 84.8272 14.4668 83.8291 14.4668C83.1273 14.4668 82.5098 14.624 81.9766 14.9385C81.4479 15.2529 81.0423 15.6973 80.7598 16.2715ZM82.708 19.9902C82.4437 19.6166 82.3115 19.0788 82.3115 18.377C82.3115 17.5886 82.4437 17.0075 82.708 16.6338C82.9723 16.2555 83.346 16.0664 83.8291 16.0664C84.3167 16.0664 84.695 16.2555 84.9639 16.6338C85.2328 17.0121 85.3672 17.5453 85.3672 18.2334C85.3672 19.0401 85.2328 19.6279 84.9639 19.9971C84.695 20.3617 84.3213 20.544 83.8428 20.544C83.3506 20.544 82.9723 20.3594 82.708 19.9902ZM92.0049 16.4014C92.21 16.4014 92.447 16.4196 92.7158 16.4561L92.7432 14.5557C92.5518 14.4964 92.3467 14.4668 92.1279 14.4668C91.4261 14.4668 90.877 14.8063 90.4805 15.4854L90.4258 14.6035H88.5596V22H90.5352V17.1602C90.7676 16.6543 91.2575 16.4014 92.0049 16.4014ZM96.3799 14.6035V12.7852H94.4043V14.6035H93.3242V16.0527H94.4043V20.0381C94.4317 21.4372 95.138 22.1367 96.5235 22.1367C96.9336 22.1367 97.3324 22.0775 97.7197 21.959V20.4619C97.5511 20.4938 97.3574 20.5098 97.1387 20.5098C96.8425 20.5098 96.6419 20.4505 96.5371 20.332C96.4323 20.2136 96.3799 20.0176 96.3799 19.7442V16.0527H97.6445V14.6035H96.3799ZM102.648 14.4668C101.855 14.4668 101.197 14.7813 100.673 15.4102V11.5H98.6973V22H100.673V16.7432C100.933 16.2966 101.352 16.0733 101.931 16.0733C102.355 16.0733 102.658 16.1758 102.84 16.3809C103.022 16.5814 103.113 16.8936 103.113 17.3174V22H105.089V17.2627C105.066 15.3988 104.253 14.4668 102.648 14.4668ZM113.982 14.6035L113.012 19.3135L111.665 14.6035H110.236L108.883 19.3067L107.919 14.6035H106.012L107.898 22H109.546L110.947 17.3447L112.349 22H114.003L115.89 14.6035H113.982ZM117.626 21.1387C118.31 21.8041 119.194 22.1367 120.278 22.1367C120.894 22.1367 121.454 22.0205 121.96 21.7881C122.466 21.5511 122.867 21.223 123.163 20.8037L122.192 19.7168C121.764 20.2682 121.169 20.544 120.408 20.544C119.916 20.544 119.508 20.3981 119.185 20.1065C118.866 19.8148 118.674 19.4274 118.61 18.9443H123.32V18.1377C123.32 16.9665 123.029 16.0619 122.445 15.4238C121.867 14.7858 121.071 14.4668 120.06 14.4668C119.385 14.4668 118.784 14.6263 118.255 14.9453C117.731 15.2598 117.325 15.711 117.038 16.2988C116.751 16.8822 116.607 17.5453 116.607 18.2881V18.4795C116.607 19.5869 116.947 20.4733 117.626 21.1387ZM119.096 16.4629C119.342 16.1986 119.661 16.0664 120.053 16.0664C120.472 16.0664 120.796 16.1872 121.023 16.4287C121.251 16.6657 121.37 17.0029 121.379 17.4404V17.5977H118.631C118.699 17.1055 118.854 16.7272 119.096 16.4629ZM128.092 19.3887C128.333 19.5254 128.454 19.7145 128.454 19.9561C128.454 20.1885 128.356 20.3776 128.16 20.5235C127.969 20.6647 127.684 20.7354 127.306 20.7354C126.9 20.7354 126.577 20.6419 126.335 20.4551C126.093 20.2682 125.964 19.9994 125.945 19.6485H124.072C124.072 20.0951 124.209 20.5121 124.482 20.8994C124.756 21.2822 125.132 21.5853 125.61 21.8086C126.093 22.0274 126.645 22.1367 127.265 22.1367C128.181 22.1367 128.928 21.9294 129.507 21.5147C130.086 21.0954 130.375 20.5485 130.375 19.874C130.375 18.9307 129.853 18.2676 128.81 17.8848C128.472 17.7617 128.058 17.6524 127.565 17.5567C127.073 17.4564 126.722 17.3402 126.513 17.208C126.308 17.0713 126.205 16.8936 126.205 16.6748C126.205 16.4424 126.296 16.251 126.479 16.1006C126.661 15.9502 126.918 15.875 127.251 15.875C127.638 15.875 127.923 15.9684 128.105 16.1553C128.288 16.3376 128.379 16.57 128.379 16.8526H130.355C130.355 16.1462 130.072 15.572 129.507 15.1299C128.946 14.6878 128.197 14.4668 127.258 14.4668C126.378 14.4668 125.665 14.6878 125.118 15.1299C124.576 15.5674 124.305 16.1143 124.305 16.7705C124.305 17.8962 125.184 18.6436 126.943 19.0127C127.472 19.1221 127.855 19.2474 128.092 19.3887ZM134.019 14.6035V12.7852H132.043V14.6035H130.963V16.0527H132.043V20.0381C132.07 21.4372 132.777 22.1367 134.162 22.1367C134.572 22.1367 134.971 22.0775 135.358 21.959V20.4619C135.19 20.4938 134.996 20.5098 134.777 20.5098C134.481 20.5098 134.281 20.4505 134.176 20.332C134.071 20.2136 134.019 20.0176 134.019 19.7442V16.0527H135.283V14.6035H134.019ZM75.6397 34.5C75.9131 34.7051 76.0498 35.0013 76.0498 35.3887C76.0498 35.7442 75.9131 36.0221 75.6397 36.2227C75.3662 36.4186 74.9857 36.5166 74.4981 36.5166C73.1856 36.5166 72.5293 35.9675 72.5293 34.8692H70.4717C70.4717 35.5117 70.6358 36.0768 70.9639 36.5645C71.2966 37.0521 71.7774 37.4372 72.4063 37.7197C73.0352 37.9977 73.7324 38.1367 74.4981 38.1367C75.6009 38.1367 76.4782 37.8929 77.1299 37.4053C77.7816 36.9131 78.1074 36.2363 78.1074 35.375C78.1074 34.6003 77.8408 33.9531 77.3076 33.4336C76.7744 32.9141 75.9245 32.4789 74.7578 32.1279C74.1244 31.9365 73.6436 31.7315 73.3154 31.5127C72.9919 31.294 72.8301 31.0228 72.8301 30.6992C72.8301 30.3529 72.9691 30.0749 73.2471 29.8652C73.5251 29.6511 73.9147 29.544 74.416 29.544C74.9356 29.544 75.3389 29.6716 75.626 29.9268C75.9131 30.1774 76.0567 30.5306 76.0567 30.9863H78.1074C78.1074 30.3893 77.9525 29.8561 77.6426 29.3867C77.3373 28.9173 76.9066 28.555 76.3506 28.2998C75.7946 28.0401 75.1611 27.9102 74.4502 27.9102C73.7438 27.9102 73.1058 28.0287 72.5361 28.2656C71.971 28.5026 71.5358 28.833 71.2305 29.2568C70.9297 29.6761 70.7793 30.1546 70.7793 30.6924C70.7793 31.7269 71.3444 32.5495 72.4746 33.1602C72.8893 33.3835 73.4522 33.6113 74.1631 33.8438C74.874 34.0716 75.3662 34.2904 75.6397 34.5ZM83.46 37.3369C83.501 37.6012 83.5671 37.8223 83.6582 38H85.6543V37.8838C85.4629 37.5238 85.3649 36.9929 85.3604 36.291V33.085C85.3604 32.2555 85.0915 31.613 84.5537 31.1572C84.0205 30.697 83.2982 30.4668 82.3867 30.4668C81.7852 30.4668 81.2429 30.5716 80.7598 30.7813C80.2767 30.9863 79.903 31.2712 79.6387 31.6358C79.3744 32.0003 79.2422 32.3968 79.2422 32.8252H81.2178C81.2178 32.5472 81.3112 32.3285 81.4981 32.169C81.6895 32.0095 81.9515 31.9297 82.2842 31.9297C82.6625 31.9297 82.9382 32.0322 83.1113 32.2373C83.2891 32.4424 83.3779 32.7158 83.3779 33.0576V33.4815H82.4688C81.3705 33.486 80.5296 33.6979 79.9463 34.1172C79.3675 34.5365 79.0781 35.138 79.0781 35.9219C79.0781 36.5599 79.3151 37.0886 79.7891 37.5078C80.2676 37.9271 80.8692 38.1367 81.5938 38.1367C82.3594 38.1367 82.9815 37.8701 83.46 37.3369ZM82.8311 36.4346C82.585 36.5622 82.3161 36.626 82.0244 36.626C81.7236 36.626 81.4867 36.5462 81.3135 36.3867C81.1403 36.2272 81.0537 36.0244 81.0537 35.7783L81.0606 35.6621C81.1244 34.9785 81.6507 34.6367 82.6397 34.6367H83.3779V35.9082C83.2595 36.127 83.0772 36.3024 82.8311 36.4346ZM86.9805 38H88.9629V27.5H86.9805V38ZM92.9619 30.6035V28.7852H90.9863V30.6035H89.9063V32.0527H90.9863V36.0381C91.0137 37.4372 91.7201 38.1367 93.1055 38.1367C93.5156 38.1367 93.9144 38.0775 94.3018 37.959V36.4619C94.1332 36.4938 93.9395 36.5098 93.7207 36.5098C93.4245 36.5098 93.224 36.4505 93.1192 36.332C93.0143 36.2136 92.9619 36.0176 92.9619 35.7442V32.0527H94.2266V30.6035H92.9619ZM102.73 30.6035L101.76 35.3135L100.413 30.6035H98.9844L97.6309 35.3067L96.667 30.6035H94.7598L96.6465 38H98.294L99.6953 33.3447L101.097 38H102.751L104.638 30.6035H102.73ZM109.71 37.3369C109.751 37.6012 109.817 37.8223 109.908 38H111.904V37.8838C111.713 37.5238 111.615 36.9929 111.61 36.291V33.085C111.61 32.2555 111.341 31.613 110.804 31.1572C110.271 30.697 109.548 30.4668 108.637 30.4668C108.035 30.4668 107.493 30.5716 107.01 30.7813C106.527 30.9863 106.153 31.2712 105.889 31.6358C105.624 32.0003 105.492 32.3968 105.492 32.8252H107.468C107.468 32.5472 107.561 32.3285 107.748 32.169C107.939 32.0095 108.202 31.9297 108.534 31.9297C108.912 31.9297 109.188 32.0322 109.361 32.2373C109.539 32.4424 109.628 32.7158 109.628 33.0576V33.4815H108.719C107.62 33.486 106.78 33.6979 106.196 34.1172C105.618 34.5365 105.328 35.138 105.328 35.9219C105.328 36.5599 105.565 37.0886 106.039 37.5078C106.518 37.9271 107.119 38.1367 107.844 38.1367C108.609 38.1367 109.231 37.8701 109.71 37.3369ZM109.081 36.4346C108.835 36.5622 108.566 36.626 108.274 36.626C107.974 36.626 107.737 36.5462 107.563 36.3867C107.39 36.2272 107.304 36.0244 107.304 35.7783L107.311 35.6621C107.374 34.9785 107.901 34.6367 108.89 34.6367H109.628V35.9082C109.509 36.127 109.327 36.3024 109.081 36.4346ZM115.493 30.6035V28.7852H113.518V30.6035H112.438V32.0527H113.518V36.0381C113.545 37.4372 114.251 38.1367 115.637 38.1367C116.047 38.1367 116.446 38.0775 116.833 37.959V36.4619C116.664 36.4938 116.471 36.5098 116.252 36.5098C115.956 36.5098 115.755 36.4505 115.65 36.332C115.546 36.2136 115.493 36.0176 115.493 35.7442V32.0527H116.758V30.6035H115.493ZM118.61 37.1387C119.294 37.8041 120.178 38.1367 121.263 38.1367C121.878 38.1367 122.438 38.0205 122.944 37.7881C123.45 37.5511 123.851 37.223 124.147 36.8037L123.177 35.7168C122.748 36.2682 122.154 36.544 121.393 36.544C120.9 36.544 120.493 36.3981 120.169 36.1065C119.85 35.8148 119.659 35.4274 119.595 34.9444H124.305V34.1377C124.305 32.9665 124.013 32.0619 123.43 31.4238C122.851 30.7858 122.056 30.4668 121.044 30.4668C120.369 30.4668 119.768 30.6263 119.239 30.9453C118.715 31.2598 118.31 31.711 118.022 32.2988C117.735 32.8822 117.592 33.5453 117.592 34.2881V34.4795C117.592 35.5869 117.931 36.4733 118.61 37.1387ZM120.08 32.4629C120.326 32.1986 120.645 32.0664 121.037 32.0664C121.456 32.0664 121.78 32.1872 122.008 32.4287C122.236 32.6657 122.354 33.0029 122.363 33.4404V33.5977H119.615C119.684 33.1055 119.839 32.7272 120.08 32.4629ZM128.878 32.4014C129.083 32.4014 129.32 32.4196 129.589 32.4561L129.616 30.5557C129.425 30.4964 129.22 30.4668 129.001 30.4668C128.299 30.4668 127.75 30.8063 127.354 31.4854L127.299 30.6035H125.433V38H127.408V33.1602C127.641 32.6543 128.131 32.4014 128.878 32.4014ZM72.9121 51.9492H76.5078L77.1983 54H79.3789L75.6533 44.0469H73.7529L70.0479 54H72.2285L72.9121 51.9492ZM75.9541 50.2881H73.4658L74.7031 46.5625L75.9541 50.2881ZM80.6436 47.4922C80.1286 48.1758 79.8711 49.0941 79.8711 50.2471C79.8711 51.4684 80.1332 52.4232 80.6572 53.1113C81.1859 53.7949 81.8854 54.1367 82.7559 54.1367C83.5306 54.1367 84.1641 53.8291 84.6563 53.2139L84.752 54H86.5361V43.5H84.5537V47.2735C84.0843 46.7357 83.4896 46.4668 82.7695 46.4668C81.8718 46.4668 81.1631 46.8086 80.6436 47.4922ZM82.209 51.9834C81.9675 51.6143 81.8467 51.0833 81.8467 50.3906C81.8467 48.8457 82.3229 48.0733 83.2754 48.0733C83.8815 48.0733 84.3076 48.3307 84.5537 48.8457V51.7647C84.3031 52.2796 83.8724 52.5371 83.2617 52.5371C82.8014 52.5371 82.4505 52.3526 82.209 51.9834ZM92.21 46.6035L90.836 51.5869L89.4619 46.6035H87.3975L89.8926 54H91.7793L94.2744 46.6035H92.21ZM95.8057 53.1387C96.4893 53.8041 97.3734 54.1367 98.458 54.1367C99.0733 54.1367 99.6338 54.0205 100.14 53.7881C100.646 53.5511 101.047 53.223 101.343 52.8037L100.372 51.7168C99.9437 52.2682 99.349 52.544 98.5879 52.544C98.0957 52.544 97.6878 52.3981 97.3643 52.1065C97.0453 51.8148 96.8539 51.4274 96.7901 50.9444H101.5V50.1377C101.5 48.9665 101.208 48.0619 100.625 47.4238C100.046 46.7858 99.251 46.4668 98.2393 46.4668C97.5648 46.4668 96.9632 46.6263 96.4346 46.9453C95.9105 47.2598 95.5049 47.711 95.2178 48.2988C94.9307 48.8822 94.7871 49.5453 94.7871 50.2881V50.4795C94.7871 51.5869 95.1266 52.4733 95.8057 53.1387ZM97.2754 48.4629C97.5215 48.1986 97.8405 48.0664 98.2324 48.0664C98.6517 48.0664 98.9753 48.1872 99.2031 48.4287C99.431 48.6657 99.5495 49.0029 99.5586 49.4404V49.5977H96.8106C96.8789 49.1055 97.0339 48.7272 97.2754 48.4629ZM104.508 47.458L104.446 46.6035H102.587V54H104.563V48.7842C104.841 48.3102 105.257 48.0733 105.813 48.0733C106.237 48.0733 106.54 48.169 106.723 48.3604C106.905 48.5472 106.996 48.8503 106.996 49.2695V54H108.972V49.2217C108.963 48.3057 108.767 47.6175 108.384 47.1572C108.001 46.697 107.418 46.4668 106.634 46.4668C105.745 46.4668 105.036 46.7972 104.508 47.458ZM112.841 46.6035V44.7852H110.865V46.6035H109.785V48.0527H110.865V52.0381C110.893 53.4372 111.599 54.1367 112.984 54.1367C113.395 54.1367 113.793 54.0775 114.181 53.959V52.4619C114.012 52.4938 113.818 52.5098 113.6 52.5098C113.303 52.5098 113.103 52.4505 112.998 52.332C112.893 52.2136 112.841 52.0176 112.841 51.7442V48.0527H114.105V46.6035H112.841ZM117.612 54.1367C118.474 54.1367 119.148 53.8405 119.636 53.2481L119.69 54H121.55V46.6035H119.567V51.8399C119.317 52.3047 118.856 52.5371 118.187 52.5371C117.485 52.5371 117.134 52.152 117.134 51.3819V46.6035H115.158V51.4502C115.167 52.3298 115.379 52.9974 115.794 53.4531C116.213 53.9089 116.819 54.1367 117.612 54.1367ZM126.485 48.4014C126.69 48.4014 126.927 48.4196 127.196 48.4561L127.224 46.5557C127.032 46.4964 126.827 46.4668 126.608 46.4668C125.907 46.4668 125.357 46.8063 124.961 47.4854L124.906 46.6035H123.04V54H125.016V49.1602C125.248 48.6543 125.738 48.4014 126.485 48.4014ZM128.769 53.1387C129.452 53.8041 130.336 54.1367 131.421 54.1367C132.036 54.1367 132.597 54.0205 133.103 53.7881C133.608 53.5511 134.009 53.223 134.306 52.8037L133.335 51.7168C132.907 52.2682 132.312 52.544 131.551 52.544C131.059 52.544 130.651 52.3981 130.327 52.1065C130.008 51.8148 129.817 51.4274 129.753 50.9444H134.463V50.1377C134.463 48.9665 134.171 48.0619 133.588 47.4238C133.009 46.7858 132.214 46.4668 131.202 46.4668C130.528 46.4668 129.926 46.6263 129.397 46.9453C128.873 47.2598 128.468 47.711 128.181 48.2988C127.894 48.8822 127.75 49.5453 127.75 50.2881V50.4795C127.75 51.5869 128.09 52.4733 128.769 53.1387ZM130.238 48.4629C130.484 48.1986 130.803 48.0664 131.195 48.0664C131.615 48.0664 131.938 48.1872 132.166 48.4287C132.394 48.6657 132.512 49.0029 132.521 49.4404V49.5977H129.773C129.842 49.1055 129.997 48.7272 130.238 48.4629ZM139.234 51.3887C139.476 51.5254 139.597 51.7145 139.597 51.9561C139.597 52.1885 139.499 52.3776 139.303 52.5235C139.111 52.6647 138.827 52.7354 138.448 52.7354C138.043 52.7354 137.719 52.6419 137.478 52.4551C137.236 52.2682 137.106 51.9994 137.088 51.6485H135.215C135.215 52.0951 135.352 52.5121 135.625 52.8994C135.898 53.2822 136.274 53.5853 136.753 53.8086C137.236 54.0274 137.787 54.1367 138.407 54.1367C139.323 54.1367 140.071 53.9294 140.649 53.5147C141.228 53.0954 141.518 52.5485 141.518 51.874C141.518 50.9307 140.996 50.2676 139.952 49.8848C139.615 49.7617 139.2 49.6524 138.708 49.5567C138.216 49.4564 137.865 49.3402 137.655 49.208C137.45 49.0713 137.348 48.8936 137.348 48.6748C137.348 48.4424 137.439 48.251 137.621 48.1006C137.803 47.9502 138.061 47.875 138.394 47.875C138.781 47.875 139.066 47.9684 139.248 48.1553C139.43 48.3376 139.521 48.57 139.521 48.8526H141.497C141.497 48.1462 141.215 47.572 140.649 47.1299C140.089 46.6878 139.339 46.4668 138.4 46.4668C137.521 46.4668 136.808 46.6878 136.261 47.1299C135.718 47.5674 135.447 48.1143 135.447 48.7705C135.447 49.8962 136.327 50.6436 138.086 51.0127C138.615 51.1221 138.997 51.2474 139.234 51.3887Z" fill="white"/>
</svg>
